<svg width="185" height="372" viewBox="0 0 185 372" fill="none" xmlns="http://www.w3.org/2000/svg">
<path d="M104.313 2.75853C106.519 4.44541 107.981 5.87411 108.45 8.67207C108.477 9.08469 108.504 9.49732 108.533 9.92245C108.589 10.6013 108.589 10.6013 108.647 11.2939C108.717 12.2422 108.783 13.1909 108.844 14.1398C108.902 14.8165 108.902 14.8165 108.962 15.5068C108.991 15.9182 109.02 16.3295 109.049 16.7533C109.313 17.9154 109.313 17.9154 110.569 18.509C110.938 18.6509 111.307 18.7927 111.687 18.9389C111.557 20.2139 111.419 21.4873 111.269 22.7602C111.153 23.7637 111.057 24.7696 110.971 25.7761C110.83 26.166 110.688 26.5558 110.542 26.9575C109.083 27.604 109.083 27.604 107.678 28.103C107.683 28.7246 107.688 29.3463 107.694 29.9868C107.612 36.49 107.612 36.49 106.275 38.5401C105.257 39.3683 102.61 41.6772 101.485 42.3503C100.932 42.8831 102.004 41.7845 101.485 42.3503C100.232 43.5674 101.322 42.5006 99.6595 43.5674C97.9412 43.9336 99.3731 43.6278 98.2276 43.9141C96.7708 43.992 93.3851 43.8695 91.9273 43.9141C91.9273 43.9141 91.4888 43.8894 91.0681 43.9141C89.3499 43.8537 89.9226 43.9141 88.2043 43.5674C87.6316 42.9946 87.6316 43.281 86.7725 42.4218C85.9133 41.5627 85.6269 41.4799 84.7678 40.764C83.0495 39.3321 82.1084 39.0258 81.3313 36.6943C81.2878 35.37 81.2531 34.0455 81.2239 32.7208C81.1382 30.5723 81.1382 30.5723 80.7585 28.6757C79.624 27.8958 78.4785 27.1316 77.322 26.3847C76.8296 23.907 76.7565 21.4605 76.7492 18.9389C77.3163 18.7499 77.8833 18.5609 78.4675 18.3661C79.3086 15.8429 79.2627 13.3039 79.396 10.6585C79.6093 8.66435 80.2672 7.0992 81.0449 5.25315C81.6177 4.39402 81.3313 4.6804 82.1904 4.10764C83.2483 3.32804 82.7632 3.68926 83.0495 3.47448C88.8016 -0.839577 98.2717 -1.20294 104.313 2.75853Z" fill="#CCCCCE"/>
<path d="M73.9212 64.3186C78.306 64.3502 82.4156 65.8856 86.4861 67.3971C87.4584 67.7548 87.4584 67.7548 88.4504 68.1198C89.9226 69.1154 89.9226 69.1154 90.3835 70.7442C90.3968 71.4352 90.4101 72.1263 90.4238 72.8383C90.4352 73.2211 90.4466 73.6039 90.4583 73.9984C90.4923 75.4258 90.4946 76.8516 90.4954 78.2795C90.4993 78.9211 90.5033 79.5627 90.5074 80.2237C90.5344 84.7307 90.5275 89.2369 90.4954 93.7439C88.3722 94.1306 86.248 94.5106 84.1235 94.8894C83.5239 94.9987 82.9244 95.1079 82.3067 95.2205C81.7235 95.3239 81.1402 95.4272 80.5393 95.5337C79.7384 95.6777 79.7384 95.6777 78.9214 95.8246C76.1956 96.183 74.0388 96.3925 71.6414 94.923C71.2449 94.6849 70.8484 94.4468 70.4398 94.2016C70.0294 93.9442 69.6189 93.6869 69.196 93.4217C68.7704 93.1618 68.3448 92.9018 67.9063 92.634C67.0512 92.11 66.1982 91.5826 65.3473 91.0518C64.2761 90.3865 63.1975 89.7374 62.1126 89.0947C61.5441 88.7507 60.9756 88.4066 60.3899 88.0521C59.893 87.7516 59.3961 87.4511 58.8842 87.1415C58.5423 86.8632 58.2005 86.5848 57.8483 86.2981C57.8483 85.731 57.8483 85.164 57.8483 84.5798C60.2666 82.8615 60.2666 82.8615 61.8576 82.8615C61.8576 82.4835 61.8576 82.1055 61.8576 81.716C62.288 81.3055 62.7185 80.895 63.1619 80.4721C64.8675 78.7004 65.7997 76.9221 66.7618 74.6998C66.9317 74.322 67.1016 73.9443 67.2767 73.5551C67.7679 72.4598 68.2505 71.3611 68.7307 70.2609C71.3049 64.4321 71.3049 64.4321 73.9212 64.3186Z" fill="#CCCCCE"/>
<path d="M115.124 64.5333C115.124 64.9113 115.124 65.2893 115.124 65.6788C115.502 65.6788 115.88 65.6788 116.269 65.6788C116.408 66.0871 116.547 66.4954 116.69 66.916C117.829 70.1722 119.071 73.0403 120.851 75.9884C121.001 76.3516 121.15 76.7149 121.303 77.0892C122.685 80.421 124.802 82.0992 127.698 84.1994C128.084 84.5139 128.471 84.8284 128.87 85.1525C128.87 85.5305 128.87 85.9085 128.87 86.298C128.288 86.6169 127.706 86.9359 127.107 87.2645C126.31 87.7054 125.514 88.1469 124.717 88.589C124.301 88.8193 123.885 89.0496 123.457 89.2869C120.848 90.7508 118.413 92.3242 115.983 94.066C113.127 96.0073 111.663 96.6036 108.251 96.0348C107.168 95.7779 106.085 95.5187 105.014 95.2185C103.286 94.7956 101.551 94.5389 99.7914 94.2763C99.1226 94.1758 98.4539 94.0753 97.7648 93.9717C97.256 93.8965 96.7471 93.8213 96.2229 93.7438C96.1047 77.1725 96.1047 77.1725 96.7956 69.1153C98.4814 68.4045 100.169 67.6991 101.861 67.0033C102.882 66.5786 103.9 66.1442 104.904 65.6788C108.246 64.206 111.522 64.3712 115.124 64.5333Z" fill="#CCCCCE"/>
<path d="M16.4571 171.152C16.8316 172.665 17.2061 174.178 17.592 175.737C19.8393 175.926 22.0865 176.115 24.4018 176.31C24.7073 183.557 23.9589 189.93 22.1319 196.939C21.9418 197.703 21.7524 198.467 21.5644 199.232C20.8153 199.232 20.0663 199.232 19.2945 199.232C19.5668 196.04 20.0317 193.117 20.9969 190.063C19.8923 190.011 19.8923 190.011 18.727 190.636C18.0876 192.106 17.6053 193.441 17.1664 194.97C17.0413 195.377 16.9162 195.784 16.7874 196.204C16.4796 197.211 16.1835 198.221 15.8896 199.232C14.9532 199.232 14.0169 199.232 13.0522 199.232C13.641 195.755 14.3798 192.677 15.8896 189.49C15.1405 189.49 14.3914 189.49 13.6196 189.49C13.5231 189.809 13.4265 190.128 13.327 190.457C12.3524 193.556 11.1491 196.355 9.64724 199.232C8.52362 199.232 7.4 199.232 6.24233 199.232C6.62352 197.05 7.22264 195.019 7.94479 192.928C8.31933 192.928 8.69387 192.928 9.07976 192.928C9.16169 192.29 9.24362 191.652 9.32803 190.994C9.64724 188.917 9.64724 188.917 10.2147 187.771C9.46565 187.771 8.71657 187.771 7.94479 187.771C7.88334 188.088 7.82189 188.405 7.75858 188.731C7.30412 190.319 6.63031 191.602 5.81672 193.036C5.53874 193.54 5.26076 194.045 4.97436 194.564C3.97239 195.793 3.97239 195.793 2.43841 196.252C2.00828 196.29 1.57814 196.328 1.13497 196.366C1.40921 193.459 2.34031 191.865 3.97239 189.49C4.55748 188.161 5.12403 186.823 5.67485 185.479C6.29317 184.287 6.9197 183.102 7.56351 181.924C8.10691 180.785 8.10691 180.785 7.3773 179.175C6.9874 179.341 6.5975 179.506 6.19578 179.676C5.68445 179.889 5.17311 180.102 4.64628 180.321C4.13934 180.534 3.63239 180.747 3.11008 180.966C1.70245 181.467 1.70245 181.467 0 181.467C0.274693 178.996 0.919353 177.995 2.80196 176.417C3.20503 176.071 3.60809 175.724 4.02338 175.367C5.10736 174.591 5.10736 174.591 6.24233 174.591C6.24233 174.212 6.24233 173.834 6.24233 173.445C7.40903 172.946 8.5804 172.459 9.75364 171.976C10.4054 171.704 11.0572 171.431 11.7288 171.15C13.6488 170.571 14.5754 170.555 16.4571 171.152Z" fill="#CECECF"/>
<path d="M169.11 170.006C169.672 170.006 170.234 170.006 170.813 170.006C170.813 170.385 170.813 170.763 170.813 171.152C171.638 171.206 171.638 171.206 172.48 171.26C176.665 171.869 179.931 174.387 182.73 177.456C183.163 177.751 183.596 178.047 184.042 178.351C184.358 178.623 184.674 178.895 185 179.175C185 179.931 185 180.688 185 181.467C181.856 181.142 179.304 179.961 176.488 178.602C178.255 183.85 180.769 188.867 183.546 193.644C184.433 195.22 184.433 195.22 184.433 196.366C183.309 196.366 182.185 196.366 181.028 196.366C179.325 193.071 179.325 193.071 179.325 191.782C178.951 191.782 178.576 191.782 178.19 191.782C177.628 190.647 177.067 189.513 176.488 188.344C176.113 188.344 175.739 188.344 175.353 188.344C176.246 191.581 177.236 194.512 178.758 197.513C178.758 198.08 178.758 198.647 178.758 199.232C177.634 199.232 176.51 199.232 175.353 199.232C174.795 198.039 174.24 196.845 173.686 195.65C173.376 194.985 173.067 194.32 172.748 193.636C172.138 192.223 171.671 190.991 171.38 189.49C170.631 189.301 169.882 189.112 169.11 188.917C169.315 189.517 169.52 190.118 169.731 190.737C169.997 191.527 170.263 192.317 170.529 193.107C170.664 193.503 170.8 193.898 170.939 194.306C171.512 196.016 171.948 197.413 171.948 199.232C171.012 199.232 170.075 199.232 169.11 199.232C168.635 197.919 168.163 196.606 167.692 195.292C167.556 194.919 167.421 194.546 167.282 194.162C166.273 191.339 166.273 191.339 166.273 190.063C165.524 190.063 164.775 190.063 164.003 190.063C164.126 190.485 164.249 190.907 164.375 191.341C164.533 191.9 164.691 192.459 164.854 193.036C165.091 193.863 165.091 193.863 165.333 194.708C165.687 196.282 165.775 197.625 165.706 199.232C164.956 199.232 164.207 199.232 163.436 199.232C163.326 198.706 163.216 198.18 163.103 197.638C162.955 196.935 162.808 196.231 162.655 195.507C162.51 194.815 162.366 194.124 162.216 193.412C161.974 192.306 161.73 191.199 161.425 190.109C160.583 187.09 160.462 184.306 160.527 181.181C160.532 180.709 160.537 180.238 160.543 179.753C160.556 178.605 160.576 177.457 160.598 176.31C161.022 176.287 161.447 176.264 161.884 176.24C163.667 176.05 165.164 175.814 166.84 175.164C168.043 173.563 168.617 171.942 169.11 170.006Z" fill="#CECED0"/>
<path d="M125.433 157.893C125.448 158.474 125.462 159.056 125.477 159.656C125.532 161.877 125.589 164.097 125.647 166.317C125.671 167.267 125.695 168.217 125.718 169.166C125.847 174.378 126.018 179.583 126.295 184.79C127.838 214.345 127.838 214.345 123.037 225.451C122.29 227.325 121.88 229.242 121.424 231.205C121.175 231.997 120.915 232.786 120.637 233.568C118.41 240.114 116.763 246.831 115.124 253.543C114.368 253.732 113.612 253.921 112.833 254.115C113.212 249.606 114.168 245.309 115.195 240.906C115.559 239.331 115.92 237.755 116.281 236.179C116.42 235.572 116.42 235.572 116.562 234.954C117.237 232.008 117.89 229.059 118.531 226.106C118.621 225.692 118.711 225.277 118.804 224.85C119.155 223.233 119.505 221.617 119.853 219.999C120.093 218.884 120.335 217.769 120.576 216.654C120.713 216.02 120.849 215.386 120.99 214.733C121.301 213.405 121.656 212.086 122.04 210.777C122.671 208.501 122.74 206.376 122.713 204.035C122.71 203.306 122.71 203.306 122.706 202.561C122.653 198.32 122.371 194.101 122.077 189.871C121.617 183.215 121.263 176.566 121.19 169.892C121.179 169.057 121.163 168.222 121.143 167.387C121.115 166.224 121.109 165.061 121.104 163.897C121.097 163.234 121.089 162.571 121.081 161.888C121.424 160.184 121.424 160.184 122.804 158.806C124.288 157.893 124.288 157.893 125.433 157.893Z" fill="#CFCFD1"/>
<path d="M61.2848 157.892C62.7131 158.582 63.9661 159.298 65.2941 160.184C65.4439 161.92 65.4796 163.531 65.4373 165.267C65.4306 165.791 65.4239 166.314 65.417 166.854C65.3887 168.64 65.3436 170.426 65.2941 172.211C65.2761 172.878 65.2581 173.544 65.2396 174.23C64.8948 186.296 64.8948 186.296 64.4216 192.07C64.1585 195.336 64.0437 198.576 64.0412 201.851C64.0342 202.348 64.0272 202.845 64.02 203.357C64.0134 206.288 64.3188 208.918 65.0249 211.762C65.4325 213.45 65.5442 215.135 65.67 216.862C65.8078 218.05 65.8078 218.05 66.4121 219.075C67.0662 220.435 67.3594 221.651 67.65 223.131C67.7609 223.682 67.8718 224.233 67.986 224.801C68.1018 225.391 68.2176 225.98 68.3369 226.587C69.2743 231.242 70.2816 235.866 71.4154 240.477C72.4766 244.813 73.3341 249.107 73.8854 253.543C73.1294 253.543 72.3734 253.543 71.5944 253.543C71.5317 253.182 71.4689 252.822 71.4042 252.451C70.8789 249.615 70.2146 247.011 69.1423 244.336C68.591 242.859 68.2473 241.358 67.8872 239.826C67.571 238.596 67.1787 237.416 66.7618 236.217C65.9155 233.745 65.3172 231.255 64.737 228.708C64.2891 227.121 63.8056 225.782 63.1485 224.287C57.6943 211.098 59.6138 195.339 60.5742 181.382C60.8635 176.9 60.9262 172.405 61.0342 167.916C61.0591 166.936 61.0841 165.957 61.1092 164.978C61.1695 162.616 61.2278 160.254 61.2848 157.892Z" fill="#CFCFD0"/>
<path d="M55.6714 65.5111C56.7096 65.5194 56.7096 65.5194 57.7689 65.5278C58.8536 65.5494 58.8536 65.5494 59.9603 65.5715C61.0551 65.5831 61.0551 65.5831 62.1719 65.595C63.9766 65.6152 65.7807 65.6435 67.5851 65.6789C67.2896 67.8258 66.9252 69.5742 65.8892 71.4802C65.6663 71.8955 65.4433 72.3109 65.2136 72.7387C64.9803 73.1614 64.7469 73.5841 64.5066 74.0196C64.2777 74.4445 64.0488 74.8694 63.813 75.3072C63.3679 76.1293 62.9174 76.9486 62.4611 77.7646C61.9635 78.6613 61.4929 79.5728 61.0298 80.4877C59.879 82.0751 58.789 82.546 56.9892 83.2911C56.4398 83.5244 55.8905 83.7577 55.3246 83.9981C54.2676 84.412 53.1976 84.7936 52.1207 85.1525C51.8608 85.4361 51.601 85.7196 51.3332 86.0117C50.1337 87.1189 49.1301 87.2285 47.5387 87.4436C47.9149 85.2772 48.5239 83.3092 49.2928 81.2506C49.5002 80.6917 49.7077 80.1328 49.9214 79.557C50.0802 79.1354 50.2389 78.7138 50.4025 78.2795C50.7805 78.2795 51.1585 78.2795 51.548 78.2795C51.607 77.7479 51.6661 77.2163 51.727 76.6686C52.1238 74.8288 52.3429 74.2019 53.839 73.1247C54.217 73.1247 54.595 73.1247 54.9845 73.1247C54.9845 72.7467 54.9845 72.3686 54.9845 71.9792C55.9155 71.0016 56.8695 70.0452 57.8483 69.1154C57.5308 69.3635 57.2133 69.6115 56.8862 69.8671C56.2638 70.3456 56.2638 70.3456 55.6289 70.8337C55.2169 71.1526 54.8049 71.4716 54.3804 71.8002C53.2662 72.5519 53.2662 72.5519 52.1207 72.5519C49.6526 77.3228 47.6386 82.393 45.8204 87.4436C45.4424 87.4436 45.0644 87.4436 44.6749 87.4436C44.0408 80.6285 43.7807 75.2969 48.2141 69.7897C48.9184 68.9699 49.659 68.1816 50.4025 67.3971C50.6421 67.0862 50.8816 66.7752 51.1285 66.4548C52.6131 65.2939 53.8107 65.4849 55.6714 65.5111Z" fill="#CECED0"/>
<path d="M89.0951 349.37C89.8668 352.763 89.7671 356.111 89.769 359.577C89.776 360.236 89.7829 360.895 89.7901 361.575C89.7962 365.165 89.5857 368.285 88.5277 371.718C87.2168 371.718 85.9059 371.718 84.5553 371.718C84.368 370.584 84.1807 369.449 83.9878 368.28C83.6132 368.28 83.2387 368.28 82.8528 368.28C82.8528 369.226 82.8528 370.171 82.8528 371.145C82.5024 371.034 82.152 370.924 81.791 370.809C78.572 369.81 75.3666 368.978 72.0706 368.28C71.3094 363.38 73.9457 360.098 76.6105 356.246C77.0264 355.618 77.0264 355.618 77.4506 354.977C80.1323 351.348 84.604 349.099 89.0951 349.37Z" fill="#CDCDCF"/>
<path d="M95.9049 349.37C100.284 349.746 104.046 350.967 107.077 354.312C107.722 355.133 108.348 355.97 108.957 356.819C109.453 357.497 109.453 357.497 109.959 358.189C112.232 361.6 112.826 364.2 112.362 368.28C110.684 369.127 109.103 368.888 107.255 368.853C107.255 369.231 107.255 369.609 107.255 369.999C105.382 370.377 103.509 370.756 101.58 371.145C101.861 369.443 101.861 369.443 102.147 367.707C101.773 367.707 101.398 367.707 101.012 367.707C100.825 368.842 100.638 369.976 100.445 371.145C99.1339 371.145 97.823 371.145 96.4724 371.145C94.9777 367.16 95.1906 363.182 95.231 358.968C95.2314 358.235 95.2317 357.502 95.2321 356.747C95.2576 351.33 95.2576 351.33 95.9049 349.37Z" fill="#CDCDCE"/>
<path d="M119.133 180.803C119.511 180.803 119.889 180.803 120.279 180.803C120.466 185.656 120.631 190.51 120.78 195.365C120.837 196.995 120.914 198.619 121.01 200.247C121.387 208.293 119.299 215.989 117.415 223.759C117.305 224.213 117.196 224.666 117.083 225.133C116.646 226.921 116.194 228.705 115.735 230.487C114.428 235.617 113.295 240.792 112.114 245.952C111.403 249.056 110.686 252.158 109.969 255.261C109.213 255.072 108.457 254.883 107.678 254.688C107.36 251.828 107.044 248.967 106.731 246.106C106.624 245.137 106.517 244.168 106.409 243.198C105.489 234.931 104.726 226.68 104.635 218.354C104.619 217.83 104.602 217.306 104.585 216.767C104.551 213.137 105.292 210.83 107.105 207.722C107.502 206.774 107.887 205.82 108.251 204.858C109.101 202.677 110.071 200.614 111.144 198.536C112.04 196.684 112.714 194.767 113.406 192.831C113.784 192.831 114.162 192.831 114.551 192.831C114.551 192.075 114.551 191.318 114.551 190.54C114.929 190.54 115.307 190.54 115.697 190.54C115.732 189.996 115.767 189.453 115.804 188.893C116.207 185.917 117.713 183.407 119.133 180.803Z" fill="#CDCDCF"/>
<path d="M101.95 218.032C102.139 218.032 102.329 218.032 102.523 218.032C102.786 220.466 103.049 222.9 103.311 225.334C103.389 226.06 103.467 226.785 103.548 227.533C104.067 232.373 104.566 237.215 105.016 242.062C105.23 244.392 105.23 244.392 105.685 246.681C106.111 248.44 106.012 250.164 105.996 251.968C105.99 252.691 105.985 253.415 105.98 254.16C105.973 254.712 105.967 255.265 105.96 255.834C104.259 256.401 104.259 256.401 102.523 256.979C102.523 257.357 102.523 257.735 102.523 258.125C101.106 258.408 101.106 258.408 99.6595 258.697C98.9807 256.23 98.3165 253.759 97.6548 251.287C97.4636 250.593 97.2724 249.899 97.0754 249.183C95.6275 243.732 95.045 239.536 96.6167 234.069C96.7178 233.712 96.8188 233.356 96.9229 232.989C97.1408 232.225 97.3618 231.462 97.5857 230.701C97.963 229.412 98.3274 228.121 98.6907 226.829C98.9415 225.949 99.1928 225.069 99.4447 224.189C99.5626 223.772 99.6805 223.356 99.802 222.927C100.346 221.066 100.866 219.659 101.95 218.032Z" fill="#CDCDCF"/>
<path d="M66.4396 180.803C66.8176 180.803 67.1956 180.803 67.5851 180.803C67.8428 181.394 68.1005 181.985 68.3659 182.595C70.8754 188.314 73.4998 193.965 76.2577 199.57C77.7837 202.708 79.0864 205.84 80.1952 209.151C80.7291 210.638 80.7291 210.638 81.6757 212.065C83.4435 215.12 82.3907 219.373 82.0114 222.757C81.298 229.462 80.7615 236.181 80.2164 242.901C79.8801 247.028 79.5336 251.149 79.0402 255.261C78.2842 255.261 77.5281 255.261 76.7492 255.261C75.9594 251.873 75.1721 248.484 74.3866 245.095C74.2695 244.59 74.1524 244.085 74.0318 243.564C72.3676 236.378 70.7543 229.186 69.2695 221.96C68.6944 219.2 68.0703 216.496 67.2406 213.801C65.8953 209.422 65.7767 205.373 65.7953 200.813C65.7964 200.16 65.7975 199.507 65.7986 198.835C65.8288 192.813 66.0823 186.813 66.4396 180.803Z" fill="#CDCDCF"/>
<path d="M84.7678 218.605C86.6204 220.296 87.1926 222.081 87.8822 224.439C88.003 224.842 88.1239 225.244 88.2484 225.659C88.6252 226.932 88.99 228.209 89.3499 229.487C89.4663 229.9 89.5828 230.313 89.7028 230.739C91.8449 238.468 91.7474 243.533 89.6362 251.252C89.445 251.968 89.2538 252.685 89.0568 253.424C88.5867 255.183 88.1116 256.941 87.6316 258.697C85.2068 258.131 83.4698 257.108 81.3313 255.834C81.2127 251.388 81.5799 247.07 82.083 242.656C82.1593 241.965 82.2356 241.274 82.3142 240.562C82.5564 238.373 82.8029 236.185 83.0495 233.997C83.2154 232.506 83.381 231.014 83.5462 229.523C83.9502 225.883 84.3576 222.244 84.7678 218.605Z" fill="#CDCDCF"/>
<path d="M52.6935 128.682C51.7903 131.923 50.764 134.832 49.257 137.846C48.808 139.365 48.4582 140.881 48.1115 142.428C47.7334 142.428 47.3554 142.428 46.9659 142.428C46.9069 143.031 46.8478 143.633 46.787 144.254C46.1612 147.724 44.1373 150.116 42.0617 152.917C41.8332 153.232 41.6047 153.547 41.3693 153.871C40.7815 154.661 40.1536 155.421 39.5201 156.174C39.1421 156.174 38.7641 156.174 38.3746 156.174C38.1974 156.529 38.0202 156.883 37.8377 157.248C37.4439 158.036 37.0501 158.823 36.6563 159.611C36.2783 159.611 35.9003 159.611 35.5108 159.611C35.3698 160.023 35.2288 160.435 35.0835 160.859C34.2858 162.654 33.3015 163.911 32.0385 165.41C30.2923 167.475 30.2923 167.475 29.2105 169.92C28.36 170.487 28.36 170.487 27.4923 171.066C27.3032 171.633 27.1142 172.2 26.9195 172.784C26.5415 172.784 26.1635 172.784 25.774 172.784C25.3868 171.975 25.0063 171.163 24.6285 170.35C24.4158 169.898 24.2032 169.446 23.9841 168.981C23.483 167.629 23.483 167.629 23.483 165.338C23.861 165.338 24.239 165.338 24.6285 165.338C24.6985 165.007 24.7685 164.676 24.8406 164.335C25.2129 163.006 25.715 161.972 26.3893 160.77C26.6284 160.341 26.8676 159.912 27.114 159.47C27.4962 158.796 27.4962 158.796 27.886 158.107C28.1449 157.646 28.4037 157.184 28.6704 156.708C30.2934 153.825 31.9629 150.975 33.6874 148.151C34.5728 146.661 35.3418 145.14 36.0836 143.574C36.4616 143.574 36.8396 143.574 37.2291 143.574C37.3472 143.007 37.4654 142.44 37.5871 141.855C39.056 136.841 42.6566 134.126 46.9659 131.546C47.8132 130.997 48.6604 130.448 49.5075 129.899C51.4021 128.682 51.4021 128.682 52.6935 128.682Z" fill="#CDCDCF"/>
<path d="M37.8019 120.663C38.5424 123.507 38.4799 126.338 38.482 129.255C38.489 129.764 38.496 130.274 38.5033 130.798C38.509 133.383 38.5049 135.521 37.2291 137.846C36.6563 138.419 36.0836 138.992 35.5108 139.564C35.2842 140.025 35.0575 140.486 34.824 140.96C33.4132 143.751 31.7764 146.386 30.1413 149.051C29.7903 149.623 29.4394 150.195 29.0778 150.785C28.3451 151.979 27.6119 153.173 26.8784 154.367C25.7927 156.144 24.7203 157.927 23.6508 159.714C22.9864 160.813 22.3219 161.912 21.6573 163.011C21.3481 163.534 21.0388 164.056 20.7202 164.593C20.2859 165.307 20.2859 165.307 19.8428 166.034C19.5909 166.454 19.339 166.874 19.0795 167.307C18.8316 167.602 18.5836 167.898 18.3282 168.202C17.7611 168.202 17.1941 168.202 16.6099 168.202C16.9325 166.085 17.4846 164.657 18.6504 162.868C23.3278 155.298 26.3418 148.025 27.8189 139.226C28.0405 137.984 28.3151 136.775 28.6378 135.555C29.0158 135.555 29.3938 135.555 29.7833 135.555C29.8069 134.858 29.8305 134.161 29.8549 133.443C30.3289 129.176 32.0932 124.528 35.2692 121.587C36.6563 120.663 36.6563 120.663 37.8019 120.663Z" fill="#CECED0"/>
<path d="M135.17 128.682C137.891 129.756 137.891 129.756 139.18 130.4C139.18 130.778 139.18 131.156 139.18 131.546C139.569 131.688 139.959 131.829 140.361 131.975C144.706 133.824 146.878 135.647 149.489 139.564C149.489 140.131 149.489 140.698 149.489 141.283C149.867 141.283 150.245 141.283 150.635 141.283C150.942 141.921 151.249 142.558 151.565 143.216C152.79 145.687 154.215 148.005 155.691 150.333C156.362 151.592 156.362 151.592 156.362 153.31C156.74 153.31 157.118 153.31 157.508 153.31C158.653 155.029 158.653 155.029 158.653 157.32C159.031 157.32 159.409 157.32 159.799 157.32C161.517 160.542 161.517 160.542 161.517 162.475C161.895 162.475 162.273 162.475 162.663 162.475C163.932 164.073 164.397 164.961 164.309 167.021C163.773 168.898 163.026 170.501 162.09 172.211C159.892 171.356 158.961 170.129 157.651 168.202C157.124 167.44 157.124 167.44 156.586 166.663C155.789 165.338 155.789 165.338 155.789 164.193C155.222 164.004 154.655 163.815 154.071 163.62C153.391 162.152 153.391 162.152 152.926 160.756C152.548 160.756 152.17 160.756 151.78 160.756C150.852 159.604 150.852 159.604 149.811 158.072C149.469 157.573 149.128 157.075 148.775 156.561C148.139 155.59 147.53 154.599 146.963 153.586C146.08 152.082 146.08 152.082 144.623 150.814C142.979 149.079 142.225 147.356 141.435 145.149C141.144 144.38 140.852 143.611 140.56 142.842C140.293 142.138 140.027 141.435 139.752 140.71C139.356 139.787 138.952 138.867 138.535 137.953C135.17 130.517 135.17 130.517 135.17 128.682Z" fill="#CDCDCF"/>
<path d="M148.916 120.663C152.974 123.188 154.391 125.643 156.076 129.971C156.253 130.425 156.43 130.879 156.612 131.347C157.999 135.048 158.837 138.677 159.452 142.574C159.566 143.282 159.681 143.99 159.799 144.719C159.891 145.321 159.891 145.321 159.984 145.934C160.645 149.565 162.169 152.339 164.094 155.458C168.39 162.551 168.39 162.551 168.39 165.338C168.768 165.338 169.146 165.338 169.536 165.338C169.725 166.283 169.914 167.228 170.108 168.202C167.323 167.014 165.929 165.011 164.381 162.475C163.844 161.125 163.533 159.895 163.235 158.465C162.857 158.465 162.479 158.465 162.09 158.465C161.923 158.16 161.756 157.854 161.584 157.539C158.806 152.49 155.838 147.594 152.648 142.795C151.725 141.186 151.164 139.621 150.635 137.846C150.257 137.846 149.879 137.846 149.489 137.846C148.506 136.136 148.201 134.913 148.212 132.946C148.213 132.452 148.214 131.959 148.215 131.45C148.222 130.938 148.229 130.426 148.236 129.899C148.237 129.392 148.237 128.885 148.237 128.362C148.255 125.735 148.383 123.248 148.916 120.663Z" fill="#CECED0"/>
<path d="M115.124 273.589C115.502 273.778 115.88 273.967 116.269 274.162C116.506 275.675 116.675 277.149 116.806 278.672C117.172 282.478 117.687 286.218 118.346 289.984C119.179 294.871 119.318 299.566 119.133 304.518C118.755 304.518 118.377 304.518 117.988 304.518C117.975 305.051 117.975 305.051 117.963 305.594C117.736 309.801 116.65 313.435 115.213 317.36C114.555 319.397 114.268 321.303 113.978 323.419C113.614 324.57 113.229 325.715 112.833 326.855C112.236 328.913 111.676 330.981 111.115 333.048C110.965 333.591 110.816 334.133 110.663 334.692C109.859 337.639 109.143 340.551 108.654 343.569C108.11 344.975 107.375 345.343 106.067 346.043C104.348 346.732 102.649 347.244 100.805 347.475C100.622 345.587 100.912 344.153 101.541 342.398C102.727 338.932 103.666 335.408 104.599 331.867C104.778 331.215 104.957 330.563 105.141 329.891C106.846 323.416 107.127 317.222 107.125 310.563C107.13 308.899 107.136 307.234 107.141 305.57C107.141 304.445 107.134 303.32 107.119 302.196C107.027 294.246 108.112 288.137 111.7 281.009C112.514 279.382 113.242 277.722 113.978 276.059C114.358 275.235 114.74 274.411 115.124 273.589Z" fill="#CDCDCF"/>
<path d="M100.232 283.899C101.529 285.844 102.038 287.025 102.362 289.3C102.435 289.802 102.508 290.305 102.584 290.823C102.695 291.613 102.695 291.613 102.81 292.418C102.958 293.455 103.107 294.492 103.257 295.528C103.355 296.219 103.355 296.219 103.455 296.924C103.641 298.19 103.641 298.19 103.963 299.291C104.251 300.551 104.322 301.664 104.334 302.955C104.339 303.433 104.345 303.912 104.35 304.405C104.353 304.919 104.355 305.433 104.358 305.963C104.361 306.5 104.364 307.037 104.368 307.591C104.373 308.73 104.377 309.869 104.379 311.008C104.385 312.725 104.402 314.442 104.42 316.159C104.454 322.305 104.078 327.761 102.523 333.728C102.249 335.23 102.044 336.725 101.843 338.239C101.752 338.911 101.661 339.583 101.568 340.275C101.505 340.761 101.442 341.246 101.378 341.747C101.189 341.747 101 341.747 100.805 341.747C100.804 341.418 100.803 341.089 100.802 340.75C100.791 337.292 100.76 333.836 100.718 330.379C100.704 329.092 100.696 327.806 100.693 326.519C100.805 317.391 100.805 317.391 98.0123 308.833C96.8391 306.189 96.9692 303.499 97.0462 300.652C97.0537 300.06 97.0611 299.469 97.0687 298.86C97.3997 286.731 97.3997 286.731 100.232 283.899Z" fill="#D0D0D2"/>
<path d="M70.4489 274.162C70.8269 274.162 71.205 274.162 71.5944 274.162C73.0101 276.191 73.8818 278.332 74.7446 280.641C74.989 281.293 75.2334 281.945 75.4851 282.617C75.7133 283.229 75.9414 283.841 76.1765 284.471C76.3633 284.948 76.5501 285.424 76.7425 285.915C77.4106 287.621 77.8947 288.921 77.8947 290.772C78.2728 290.772 78.6508 290.772 79.0403 290.772C79.0546 291.354 79.069 291.936 79.0837 292.535C79.212 297.687 79.3515 302.839 79.5039 307.99C79.5761 310.48 79.6313 312.968 79.6578 315.458C79.7816 322.317 81.3237 328.502 83.2175 335.077C83.7491 337.067 84.1431 339.071 84.5125 341.097C84.7685 342.458 84.7685 342.458 85.448 344.253C85.9517 345.88 85.8148 346.466 85.3406 348.047C79.6978 346.227 79.6978 346.227 78.3198 344.04C77.8739 342.521 77.5896 341.017 77.322 339.456C77.0101 338.129 76.6867 336.805 76.3555 335.482C76.2643 335.108 76.1732 334.733 76.0793 334.347C74.9282 329.697 73.5109 325.124 72.1319 320.537C70.8137 316.128 69.6107 311.715 68.5539 307.236C68.2267 305.698 68.2267 305.698 67.5851 304.518C67.5288 302.996 67.5055 301.493 67.5135 299.972C67.5113 299.554 67.5091 299.137 67.5068 298.706C67.5102 296.867 67.5722 295.393 68.1579 293.636C68.3558 292.29 68.5313 290.941 68.6949 289.59C68.7431 289.194 68.7914 288.798 68.8411 288.39C69.4128 283.652 69.9327 278.907 70.4489 274.162Z" fill="#CDCDCF"/>
<path d="M87.0588 284.471C87.4368 284.471 87.8149 284.471 88.2043 284.471C89.9982 289.917 90.7283 295.053 90.7459 300.795C90.7542 301.666 90.7542 301.666 90.7627 302.555C90.7228 306.112 90.1999 308.708 88.7771 311.964C87.4882 315.072 87.4355 317.935 87.3944 321.249C87.3833 321.803 87.3722 322.358 87.3608 322.929C87.3267 324.691 87.3001 326.453 87.2736 328.216C87.2517 329.414 87.2294 330.613 87.2065 331.811C87.1516 334.741 87.1034 337.671 87.0588 340.601C85.2294 338.772 85.329 336.486 84.996 333.986C84.9212 333.426 84.8463 332.866 84.7693 332.289C84.0322 326.284 83.9351 320.311 83.971 314.267C83.9803 312.424 83.971 310.582 83.9601 308.739C83.9425 291.341 83.9425 291.341 87.0588 284.471Z" fill="#CECECF"/>
<path d="M68.7306 168.202C68.9197 168.769 69.1087 169.336 69.3034 169.92C69.6814 169.92 70.0594 169.92 70.4489 169.92C72.839 175.241 75.1894 180.572 77.4294 185.957C78.8072 189.265 80.2406 192.508 81.8906 195.692C82.7513 197.377 83.4746 199.099 84.195 200.849C84.473 201.428 84.473 201.428 84.7566 202.019C85.624 204.535 85.9167 207.096 86.2713 209.727C86.3481 210.264 86.4249 210.8 86.504 211.353C86.8435 213.796 87.1001 216.134 87.0588 218.604C85.5851 216.973 84.5493 215.39 83.6827 213.387C83.4846 212.931 83.2864 212.475 83.0823 212.005C82.8824 211.536 82.6826 211.068 82.4768 210.586C82.1959 209.929 82.1959 209.929 81.9093 209.258C81.3431 207.924 80.7817 206.588 80.2216 205.252C79.9234 204.544 79.9234 204.544 79.6193 203.822C78.7418 201.737 77.8687 199.65 77.0222 197.551C76.7785 196.95 76.5349 196.349 76.2839 195.73C76.0793 195.217 75.8748 194.704 75.6641 194.175C75.0183 192.804 74.2283 191.741 73.3127 190.539C72.8926 189.47 72.4784 188.398 72.1068 187.311C71.6093 185.919 71.6093 185.919 70.8494 184.514C68.1781 179.134 68.455 174.059 68.7306 168.202Z" fill="#CECED0"/>
<path d="M117.415 168.202C117.604 168.202 117.793 168.202 117.988 168.202C118.42 179.911 118.42 179.911 115.697 184.812C115.289 185.622 114.883 186.434 114.479 187.246C114.292 187.609 114.104 187.973 113.911 188.347C113.211 189.796 112.722 191.291 112.26 192.831C111.882 192.831 111.504 192.831 111.115 192.831C111.046 193.231 110.977 193.632 110.906 194.045C109.781 199.132 107.378 203.891 105.011 208.499C104.09 210.312 103.303 212.144 102.523 214.022C101.765 215.743 100.999 217.46 100.232 219.177C100.043 219.177 99.8542 219.177 99.6594 219.177C99.7817 218.036 99.9062 216.895 100.038 215.754C100.183 214.458 100.317 213.16 100.445 211.861C100.936 207.149 101.803 202.94 103.669 198.558C104.099 197.473 104.529 196.387 104.957 195.301C105.291 194.477 105.624 193.653 105.96 192.831C106.338 192.831 106.716 192.831 107.105 192.831C107.235 192.193 107.365 191.555 107.499 190.897C108.125 188.367 109.213 186.217 110.414 183.915C111.194 182.362 111.784 180.796 112.367 179.163C113.795 175.409 115.581 171.773 117.415 168.202Z" fill="#CECED0"/>
<path d="M113.978 166.484C114.545 166.484 115.112 166.484 115.697 166.484C115.954 169.468 115.299 170.878 113.62 173.321C109.927 178.947 107.699 185.201 105.96 191.685C103.572 190.889 103.337 189.702 102.201 187.497C101.686 186.508 101.686 186.508 101.161 185.499C100.465 184.126 99.774 182.752 99.0867 181.375C100.395 180.034 101.709 178.7 103.024 177.366C103.397 176.984 103.77 176.601 104.154 176.207C104.512 175.845 104.87 175.484 105.239 175.111C105.569 174.775 105.899 174.439 106.239 174.093C107.105 173.357 107.105 173.357 108.251 173.357C108.393 173.002 108.534 172.648 108.68 172.283C109.514 170.865 110.186 170.521 111.687 169.92C111.687 169.542 111.687 169.164 111.687 168.775C112.065 168.775 112.443 168.775 112.833 168.775C112.833 168.397 112.833 168.019 112.833 167.629C113.211 167.629 113.589 167.629 113.978 167.629C113.978 167.251 113.978 166.873 113.978 166.484Z" fill="#CECED0"/>
<path d="M72.7399 166.484C73.118 166.484 73.496 166.484 73.8854 166.484C73.8854 166.862 73.8854 167.24 73.8854 167.629C74.6415 168.007 75.3975 168.385 76.1765 168.775C76.1765 169.153 76.1765 169.531 76.1765 169.92C76.4954 170.05 76.8144 170.18 77.143 170.314C78.8447 171.28 79.9826 172.515 81.3313 173.93C81.8038 174.402 82.2763 174.875 82.7632 175.361C84.7678 177.366 86.7724 179.371 88.7771 181.375C88.3991 182.509 88.0211 183.644 87.6316 184.812C87.2536 184.812 86.8755 184.812 86.4861 184.812C86.3089 185.355 86.1317 185.899 85.9491 186.459C85.3406 188.248 85.3406 188.248 84.7678 189.394C84.3898 189.394 84.0118 189.394 83.6223 189.394C83.6223 189.961 83.6223 190.528 83.6223 191.112C83.0553 191.112 82.4882 191.112 81.904 191.112C81.8096 190.813 81.7151 190.514 81.6178 190.206C79.7244 184.3 77.7334 178.767 74.37 173.524C72.8498 171.073 72.5013 169.351 72.7399 166.484Z" fill="#CECED0"/>
<path d="M119.133 65.6788C121.203 65.1209 122.785 65.1186 124.861 65.6788C127.546 67.5027 129.802 69.9083 132.034 72.2481C132.732 72.9724 133.466 73.6622 134.208 74.3417C135.329 75.5926 135.637 76.5136 136.029 78.1362C136.561 80.1247 137.182 81.863 138.141 83.6848C139.18 85.7252 139.18 85.7252 139.18 87.4435C136.683 86.6711 134.418 85.6971 132.092 84.5081C131.485 84.1995 130.878 83.8909 130.253 83.5729C129.796 83.3381 129.34 83.1033 128.87 82.8614C128.87 82.4834 128.87 82.1054 128.87 81.7159C128.428 81.6696 127.986 81.6233 127.531 81.5755C126.006 81.1432 126.006 81.1432 125.173 80.1246C124.956 79.6899 124.738 79.2553 124.514 78.8074C124.27 78.3312 124.026 77.855 123.774 77.3643C123.53 76.863 123.286 76.3617 123.035 75.8452C122.784 75.3527 122.534 74.8603 122.275 74.3529C119.133 68.1258 119.133 68.1258 119.133 65.6788Z" fill="#CECECF"/>
<path d="M127.152 65.6788C134.596 64.8937 134.596 64.8937 137.273 66.7258C138.436 68.0455 139.402 69.3376 140.325 70.8336C140.808 71.5922 140.808 71.5922 141.301 72.3661C142.043 73.6974 142.043 73.6974 142.043 74.8429C142.421 74.8429 142.799 74.8429 143.189 74.8429C143.189 79.0011 143.189 83.1593 143.189 87.4435C141.802 85.5943 141.15 84.5379 140.397 82.4677C138.436 77.4743 136.689 74.1742 132.188 71.0685C131.849 70.802 131.51 70.5354 131.161 70.2608C131.161 69.8828 131.161 69.5048 131.161 69.1153C130.818 68.9499 130.476 68.7845 130.123 68.6141C128.87 67.9698 128.87 67.9698 127.152 66.8243C127.152 66.4463 127.152 66.0683 127.152 65.6788Z" fill="#CFCFD0"/>
<path d="M102.715 260.547C105.898 260.547 109.082 260.547 112.362 260.547C112.717 265.28 112.717 265.28 111.014 267.317C110.755 267.577 110.496 267.837 110.229 268.105C108.928 270.021 108.869 272.318 108.593 274.58C108.39 276.02 108.39 276.02 107.822 276.593C106.877 276.616 105.93 276.617 104.985 276.593C104.82 275.794 104.82 275.794 104.652 274.979C103.779 270.602 103.779 270.602 102.573 266.314C102.147 264.559 102.147 264.559 102.715 260.547Z" fill="#CFCFD1"/>
<path d="M73.773 260.547C75.2628 260.517 76.752 260.494 78.2419 260.476C78.6655 260.466 79.089 260.457 79.5254 260.447C80.635 260.437 81.7447 260.488 82.8527 260.547C83.9877 261.694 83.9877 261.694 84.1651 263.198C83.9899 265.108 83.4922 266.593 82.7774 268.36C81.8079 271.032 81.2268 273.826 80.5828 276.593C79.6465 276.404 78.7101 276.215 77.7454 276.02C77.722 275.287 77.6986 274.554 77.6744 273.799C77.3786 270.872 76.1881 269.001 74.4979 266.652C73.4817 264.521 73.6572 262.898 73.773 260.547Z" fill="#CECED0"/>
<path d="M77.8947 141.283C81.8756 141.13 85.4752 141.505 89.3498 142.428C90.4739 146.178 90.6471 149.571 90.6072 153.472C90.6056 154.075 90.604 154.679 90.6023 155.301C90.5959 157.215 90.5816 159.129 90.5669 161.043C90.5612 162.346 90.556 163.65 90.5513 164.953C90.5387 168.137 90.5196 171.319 90.4953 174.502C88.7771 175.075 88.7771 175.075 87.2915 174.617C84.5969 173.215 82.8405 172.073 81.7832 169.146C81.3661 166.971 81.1714 164.77 80.9613 162.567C80.7166 160.382 80.3807 158.216 80.0314 156.047C79.965 155.635 79.8987 155.222 79.8303 154.798C79.6947 153.958 79.5588 153.119 79.4226 152.279C79.095 150.25 78.7766 148.218 78.4608 146.187C78.3517 145.491 78.2427 144.794 78.1303 144.077C77.8947 142.428 77.8947 142.428 77.8947 141.283Z" fill="#CDCDCF"/>
<path d="M108.824 141.283C108.661 142.906 108.493 144.528 108.322 146.151C108.255 146.831 108.255 146.831 108.186 147.525C107.915 150.063 107.473 152.417 106.809 154.888C106.467 156.479 106.315 158.053 106.166 159.673C106.107 160.294 106.049 160.915 105.989 161.555C105.873 162.844 105.767 164.135 105.671 165.426C105.203 170.142 105.203 170.142 103.147 171.997C102.563 172.256 101.979 172.516 101.378 172.784C100.474 173.422 100.474 173.422 99.5521 174.073C97.9412 175.075 97.9412 175.075 96.2229 175.075C96.1944 171.53 96.1737 167.986 96.16 164.441C96.1543 163.238 96.1465 162.035 96.1365 160.831C96.0328 148.002 96.0328 148.002 97.3684 142.428C98.3111 142.237 99.2537 142.046 100.196 141.855C100.984 141.696 100.984 141.696 101.787 141.533C104.144 141.219 106.45 141.235 108.824 141.283Z" fill="#CDCDCE"/>
<path d="M82.7766 128.053C83.3916 128.055 83.3916 128.055 84.0191 128.058C84.5261 128.063 85.033 128.068 85.5553 128.073C87.1855 128.085 88.8157 128.097 90.4954 128.109C90.4954 132.078 90.4954 136.048 90.4954 140.137C86.721 139.508 86.721 139.508 84.911 138.419C82.2314 136.986 79.7595 136.868 76.7492 136.701C76.7492 134.054 76.7492 131.408 76.7492 128.682C78.9435 128.316 80.6335 128.038 82.7766 128.053Z" fill="#CDCDCF"/>
<path d="M97.3684 128.109C107.187 128.027 107.187 128.027 111.115 128.682C111.115 131.328 111.115 133.974 111.115 136.701C110.406 136.736 109.697 136.771 108.967 136.808C105.907 137.128 103.357 138.263 100.577 139.531C99.0867 140.137 99.0867 140.137 97.3684 140.137C97.3684 136.168 97.3684 132.199 97.3684 128.109Z" fill="#CDCDCF"/>
<path d="M97.3684 98.8987C100.021 99.4293 102.362 100.156 104.886 101.082C105.5 101.296 105.5 101.296 106.128 101.513C107.804 102.129 109.194 102.727 110.531 103.926C111.341 105.692 111.28 107.132 111.222 109.065C111.206 109.735 111.191 110.406 111.175 111.097C111.155 111.607 111.135 112.118 111.115 112.645C108.688 112.135 106.933 111.044 104.814 109.781C104.814 109.403 104.814 109.025 104.814 108.636C102.357 108.258 99.9 107.879 97.3684 107.49C97.3684 104.655 97.3684 101.82 97.3684 98.8987Z" fill="#CECECF"/>
<path d="M90.4954 99.4715C90.5107 100.7 90.5219 101.93 90.5311 103.159C90.5378 103.843 90.5444 104.527 90.5513 105.233C90.4954 106.917 90.4954 106.917 89.9226 107.49C89.0764 107.617 88.229 107.734 87.381 107.848C84.2221 108.429 82.1827 109.845 79.6868 111.808C78.4675 112.645 78.4675 112.645 76.7492 112.645C76.7025 111.559 76.6693 110.473 76.6418 109.387C76.6219 108.783 76.602 108.178 76.5814 107.555C76.7717 105.532 77.2426 104.514 78.4675 102.908C79.8367 102.196 81.0331 101.681 82.4768 101.19C82.908 101.03 83.3391 100.869 83.7834 100.704C86.1294 99.8636 87.9792 99.3788 90.4954 99.4715Z" fill="#CECECF"/>
<path d="M90.4953 113.218C90.4953 116.431 90.4953 119.644 90.4953 122.954C88.3885 123.066 86.2817 123.178 84.1749 123.29C81.9147 123.526 80.0476 123.984 77.8947 124.673C77.8947 122.216 77.8947 119.758 77.8947 117.227C86.4663 113.218 86.4663 113.218 90.4953 113.218Z" fill="#CECECF"/>
<path d="M97.3684 112.645C99.518 113.075 101.108 113.545 103.069 114.421C105.343 115.419 107.662 116.31 109.969 117.227C109.969 119.684 109.969 122.141 109.969 124.673C107.105 124.1 107.105 124.1 106.533 123.527C104.992 123.298 103.461 123.097 101.915 122.919C100.414 122.741 98.9141 122.564 97.3684 122.382C97.3684 119.168 97.3684 115.955 97.3684 112.645Z" fill="#CDCDCF"/>
<path d="M105.96 41.0504C106.338 41.0504 106.716 41.0504 107.105 41.0504C106.861 50.9862 106.861 50.9862 104.241 55.3692C103.959 55.8447 103.677 56.3202 103.387 56.8101C102.798 57.7888 102.204 58.7644 101.604 59.7365C100.582 61.4758 99.8208 63.2299 99.0867 65.1061C98.7087 65.1061 98.3307 65.1061 97.9412 65.1061C98.0518 63.3271 98.1815 61.5526 98.3349 59.7768C98.446 58.4633 98.534 57.1473 98.5855 55.8301C99.063 49.877 102.23 45.5345 105.96 41.0504Z" fill="#D0D0D1"/>
<path d="M82.4768 41.0504C82.0988 41.0504 81.7207 41.0504 81.3313 41.0504C81.5751 50.9862 81.5751 50.9862 84.1951 55.3692C84.4771 55.8447 84.7591 56.3202 85.0497 56.8101C85.6387 57.7888 86.2329 58.7644 86.8329 59.7365C87.8541 61.4758 88.6157 63.2299 89.3499 65.1061C89.7279 65.1061 90.1059 65.1061 90.4954 65.1061C90.3847 63.3271 90.255 61.5526 90.1016 59.7768C89.9905 58.4633 89.9025 57.1473 89.851 55.8301C89.3736 49.877 86.2069 45.5345 82.4768 41.0504Z" fill="#D0D0D1"/>
<path d="M90.2301 184.332C90.4173 184.332 90.6046 184.332 90.7976 184.332C90.8641 186.804 90.904 189.274 90.9394 191.746C90.968 192.788 90.968 192.788 90.9971 193.851C91.0525 199.017 90.2133 202.409 87.3927 206.681C87.0181 206.681 86.6436 206.681 86.2577 206.681C85.7823 205.145 85.4316 203.674 85.1227 202.097C84.9903 201.422 84.8579 200.748 84.7215 200.053C83.8898 194.555 84.9171 191.42 88.1325 186.923C88.8028 186.037 89.513 185.181 90.2301 184.332Z" fill="#CECED0"/>
<path d="M95.3374 184.332C98.5904 187.564 101.809 191.192 101.934 196.008C101.695 199.643 100.806 203.172 99.8773 206.681C98.1749 206.108 98.1749 206.108 97.532 204.964C97.3462 204.503 97.1604 204.041 96.969 203.565C96.7802 203.105 96.5915 202.645 96.397 202.171C96.1534 201.567 96.1534 201.567 95.9049 200.951C95.7177 200.573 95.5304 200.194 95.3374 199.805C95.289 198.64 95.2766 197.474 95.282 196.308C95.2839 195.614 95.2857 194.919 95.2876 194.204C95.2923 193.476 95.2971 192.747 95.302 191.997C95.3045 191.264 95.3071 190.531 95.3097 189.776C95.3164 187.962 95.3258 186.147 95.3374 184.332Z" fill="#CECED0"/>
<path d="M57.2755 88.5891C58.5419 89.5512 58.5419 89.5512 59.5666 90.8801C59.7053 92.5111 59.7053 92.5111 59.495 94.3525C59.3853 95.337 59.3853 95.337 59.2735 96.3414C58.1951 103.993 58.1951 103.993 56.7028 107.49C56.3248 107.49 55.9467 107.49 55.5573 107.49C55.4746 107.927 55.3919 108.364 55.3067 108.815C54.9845 110.354 54.9845 110.354 54.4118 112.072C54.0337 112.072 53.6557 112.072 53.2662 112.072C53.1954 112.509 53.1245 112.946 53.0515 113.397C52.6935 114.936 52.6935 114.936 51.548 116.654C50.5646 117.229 49.5794 117.802 48.5768 118.343C47.3974 118.993 47.3974 118.993 45.9278 120.234C44.6749 121.236 44.6749 121.236 43.5294 121.236C43.3323 120.295 43.143 119.352 42.9566 118.408C42.8503 117.883 42.744 117.358 42.6345 116.817C42.0256 112.246 42.5617 108.32 43.7084 103.875C43.8385 103.351 43.9686 102.827 44.1026 102.287C44.4791 100.774 44.8629 99.2637 45.2477 97.7532C45.4393 96.9837 45.6303 96.2141 45.8204 95.4443C46.1975 93.9216 46.5788 92.4003 46.9659 90.8801C47.533 90.8801 48.1 90.8801 48.6842 90.8801C48.6842 90.5021 48.6842 90.1241 48.6842 89.7346C51.8161 88.361 53.8582 87.6034 57.2755 88.5891Z" fill="#CDCDCF"/>
<path d="M43.5294 96.0349C44.0661 97.7507 44.1089 98.849 43.6569 100.583C43.5515 101.009 43.446 101.435 43.3373 101.873C43.2235 102.321 43.1097 102.769 42.9925 103.23C41.6151 109.052 41.4425 113.921 42.7061 119.8C42.9613 121.263 42.9991 122.618 42.9567 124.1C42.1825 123.154 41.4218 122.197 40.6656 121.236C39.9292 120.411 39.9292 120.411 39.1778 119.569C37.1289 116.674 37.3399 113.569 37.3723 110.139C37.3516 109.517 37.3309 108.896 37.3096 108.255C37.3096 102.955 39.1795 100.409 42.8006 96.7545C43.0411 96.5171 43.2816 96.2796 43.5294 96.0349Z" fill="#CDCDCE"/>
<path d="M135.17 88.589C135.57 88.671 135.971 88.7529 136.383 88.8374C138.107 89.2952 139.366 89.6939 140.343 91.2447C140.831 92.6379 141.154 94.0193 141.471 95.4621C141.657 96.2144 141.846 96.9661 142.037 97.7173C142.342 98.9191 142.645 100.121 142.934 101.327C143.351 103.059 143.801 104.737 144.395 106.418C145.83 111.024 144.898 116.077 143.762 120.663C143.195 120.663 142.628 120.663 142.043 120.663C142.043 120.285 142.043 119.907 142.043 119.518C141.642 119.471 141.24 119.423 140.826 119.375C138.278 118.71 136.47 117.686 134.929 115.497C133.745 113.454 132.812 111.502 132.235 109.208C131.987 108.358 131.987 108.358 131.734 107.49C131.167 107.301 130.6 107.112 130.016 106.917C129.498 105.3 129.101 103.777 128.763 102.12C128.665 101.653 128.568 101.186 128.468 100.705C126.996 93.2781 126.996 93.2781 127.724 90.3073C130.098 87.7599 131.91 87.7459 135.17 88.589Z" fill="#CDCDCF"/>
<path d="M143.762 95.4621C144.752 96.3939 145.693 97.3381 146.625 98.3259C147.071 98.7855 147.071 98.7855 147.525 99.2544C150.42 102.605 150.553 105.467 150.42 109.781C150.424 110.378 150.427 110.974 150.431 111.589C150.378 115.411 149.816 117.989 147.771 121.236C147.204 121.52 147.204 121.52 146.625 121.809C145.976 122.964 145.976 122.964 145.48 124.1C145.291 124.1 145.102 124.1 144.907 124.1C144.812 122.151 144.907 120.663 145.471 118.782C147.177 112.541 145.895 106.516 144.263 100.433C143.841 98.6614 143.649 97.2645 143.762 95.4621Z" fill="#CFCFCF"/>
<path d="M89.0951 259.974C89.2823 259.974 89.4696 259.974 89.6626 259.974C89.6933 261.718 89.7158 263.46 89.7335 265.204C89.743 265.694 89.7525 266.185 89.7623 266.69C89.7835 269.467 89.6034 271.692 88.5276 274.301C88.1531 274.301 87.7785 274.301 87.3926 274.301C87.2961 274.731 87.1995 275.16 87.1 275.603C86.1785 279.533 85.0181 283.206 83.4202 286.908C83.233 286.908 83.0457 286.908 82.8527 286.908C82.66 285.834 82.4717 284.759 82.2853 283.684C82.1799 283.086 82.0746 282.488 81.966 281.871C81.4796 278.266 81.7057 276.186 83.4202 272.94C83.7362 272.332 84.0523 271.725 84.3779 271.1C84.6237 270.643 84.8694 270.187 85.1227 269.716C85.4972 269.716 85.8718 269.716 86.2577 269.716C86.3198 269.397 86.382 269.078 86.4461 268.749C87.0764 265.686 87.9444 262.879 89.0951 259.974Z" fill="#D0D0D2"/>
<path d="M107.105 54.2238C111.913 56.0266 116.366 58.6235 120.851 61.0968C120.851 61.4748 120.851 61.8529 120.851 62.2423C114.992 62.2423 109.133 62.2423 103.096 62.2423C103.926 59.7508 104.757 57.6654 105.96 55.3693C106.338 55.3693 106.716 55.3693 107.105 55.3693C107.105 54.9912 107.105 54.6132 107.105 54.2238Z" fill="#CFCFD0"/>
<path d="M81.3313 54.2238C76.5238 56.0266 72.0701 58.6235 67.5851 61.0968C67.5851 61.4748 67.5851 61.8529 67.5851 62.2423C73.4444 62.2423 79.3037 62.2423 85.3406 62.2423C84.51 59.7508 83.6795 57.6654 82.4768 55.3693C82.0988 55.3693 81.7207 55.3693 81.3313 55.3693C81.3313 54.9912 81.3313 54.6132 81.3313 54.2238Z" fill="#CFCFD0"/>
<path d="M95.9049 261.121C96.2794 261.121 96.654 261.121 97.0399 261.121C97.2052 261.579 97.3705 262.037 97.5408 262.508C99.8672 269.744 99.8672 269.744 103.85 276.02C103.828 277.439 103.767 278.831 103.672 280.246C103.652 280.639 103.632 281.032 103.611 281.437C103.477 283.52 103.318 284.561 102.147 286.335C101.782 285.412 101.417 284.49 101.051 283.568C100.741 282.783 100.43 281.998 100.118 281.214C99.4211 279.454 98.7245 277.694 98.0307 275.932C97.8325 275.429 97.6343 274.926 97.43 274.408C97.2566 273.967 97.0833 273.526 96.9046 273.072C96.4769 271.982 96.4769 271.982 95.9049 270.862C95.8641 269.21 95.8522 267.572 95.8694 265.92C95.872 265.46 95.8745 265.001 95.8772 264.527C95.8839 263.392 95.8941 262.256 95.9049 261.121Z" fill="#D0D0D1"/>
<path d="M116.902 254.817C117.464 255.006 118.025 255.195 118.604 255.39C118.604 259.929 118.604 264.467 118.604 269.143C116.357 269.427 116.357 269.427 114.064 269.716C113.304 269.889 112.543 270.069 111.794 270.289C111.982 269.344 112.169 268.398 112.362 267.424C112.737 267.424 113.111 267.424 113.497 267.424C113.553 267.09 113.608 266.756 113.665 266.412C114.388 262.41 115.559 258.649 116.902 254.817Z" fill="#CECECF"/>
<path d="M51.0736 118.432C51.4482 118.432 51.8227 118.432 52.2086 118.432C52.3168 121.164 52.2748 123.398 51.0736 125.882C49.584 126.67 49.584 126.67 48.2362 127.028C48.2362 127.406 48.2362 127.784 48.2362 128.174C46.3256 129.933 44.3306 131.088 41.9939 132.185C41.4658 130.692 41.3417 130.098 41.9584 128.604C42.1574 128.273 42.3564 127.942 42.5614 127.601C42.9359 127.601 43.3105 127.601 43.6963 127.601C43.8134 127.294 43.9304 126.986 44.051 126.67C45.1335 124.782 46.5611 123.25 48.2362 121.871C48.6108 121.871 48.9853 121.871 49.3712 121.871C49.5468 121.516 49.7223 121.161 49.9032 120.796C50.2934 120.008 50.6835 119.22 51.0736 118.432Z" fill="#CECED0"/>
<path d="M68.0982 255.39C69.6667 256.974 70.1035 257.573 70.8159 259.558C70.9871 260.031 71.1582 260.504 71.3346 260.991C71.5073 261.483 71.6799 261.975 71.8578 262.481C72.0348 262.969 72.2118 263.457 72.3942 263.959C73.2273 266.287 73.856 268.416 74.3405 270.862C72.2805 270.295 70.2206 269.728 68.0982 269.143C68.0982 264.605 68.0982 260.066 68.0982 255.39Z" fill="#D0D0D0"/>
<path d="M132.791 119.005C136.385 120.215 138.874 124.17 141.31 126.965C142.339 128.206 142.339 128.206 143.574 128.747C143.574 129.693 143.574 130.638 143.574 131.612C141.166 131.298 139.734 130.481 137.792 129.034C135.928 127.63 135.928 127.63 133.926 126.455C133.567 125.351 133.567 125.351 133.288 123.984C133.193 123.537 133.098 123.09 133 122.629C132.791 121.297 132.791 121.297 132.791 119.005Z" fill="#D1D1D3"/>
<path d="M66.4396 129.827C68.6031 130.866 70.6624 132.065 72.7399 133.264C72.7399 133.642 72.7399 134.02 72.7399 134.409C73.496 134.599 74.252 134.788 75.0309 134.982C75.0393 135.537 75.0477 136.091 75.0563 136.663C75.0896 138.732 75.1338 140.8 75.1813 142.869C75.2002 143.762 75.2163 144.655 75.2294 145.549C75.2487 146.837 75.2787 148.125 75.3106 149.413C75.3143 149.809 75.3179 150.204 75.3217 150.612C75.4011 153.261 76.0434 155.021 77.322 157.32C77.4898 158.783 77.4898 158.783 77.4294 160.112C77.4139 160.559 77.3984 161.007 77.3824 161.468C77.3624 161.8 77.3425 162.132 77.322 162.475C74.6961 161.178 72.115 159.8 69.8762 157.892C69.8762 157.514 69.8762 157.136 69.8762 156.747C69.2205 156.499 69.2205 156.499 68.5517 156.246C67.0124 155.601 67.0124 155.601 65.2941 154.456C65.09 153.367 65.09 153.367 65.1062 152.035C65.1087 151.543 65.1112 151.05 65.1139 150.543C65.1261 150.015 65.1383 149.487 65.1509 148.943C65.161 148.135 65.161 148.135 65.1712 147.311C65.2657 141.473 65.394 135.583 66.4396 129.827Z" fill="#CDCDCF"/>
<path d="M121.424 130.4C122.11 136.497 122.696 142.591 122.82 148.728C122.85 149.441 122.85 149.441 122.88 150.168C122.898 152.66 122.805 153.585 121.205 155.608C119.852 156.636 119.08 157.135 117.415 157.32C117.415 157.698 117.415 158.076 117.415 158.465C117.049 158.631 116.682 158.796 116.305 158.966C115.037 159.512 115.037 159.512 114.551 160.756C113.984 160.756 113.417 160.756 112.833 160.756C112.644 161.323 112.455 161.89 112.26 162.475C111.693 162.475 111.126 162.475 110.542 162.475C110.47 158.107 110.47 158.107 111.115 156.174C111.493 156.174 111.871 156.174 112.26 156.174C112.247 155.553 112.235 154.932 112.222 154.292C112.182 151.975 112.181 149.658 112.19 147.34C112.189 146.34 112.178 145.339 112.156 144.339C111.985 136.012 111.985 136.012 114.111 133.43C115.563 132.407 116.921 131.647 118.56 130.973C119.706 130.4 119.706 130.4 121.424 130.4Z" fill="#CDCDCF"/>
<path d="M125.433 109.208C125.811 109.208 126.189 109.208 126.579 109.208C126.851 113.671 126.892 119.804 124.013 123.458C123.142 124.1 123.142 124.1 121.997 124.1C121.997 124.478 121.997 124.856 121.997 125.245C121.619 125.245 121.241 125.245 120.851 125.245C120.71 125.588 120.568 125.931 120.422 126.284C119.602 127.718 118.807 128.385 117.415 129.255C117.037 129.255 116.659 129.255 116.269 129.255C116.058 123.208 116.058 123.208 117.415 120.663C117.793 120.663 118.171 120.663 118.56 120.663C118.701 120.371 118.841 120.079 118.985 119.777C119.953 117.89 121.011 116.058 122.068 114.22C122.282 113.848 122.495 113.476 122.715 113.092C123.239 112.179 123.763 111.266 124.288 110.354C124.666 110.354 125.044 110.354 125.433 110.354C125.433 109.976 125.433 109.598 125.433 109.208Z" fill="#CFCFD1"/>
<path d="M61.9763 109.969C61.5983 109.969 61.2203 109.969 60.8308 109.969C60.5588 114.432 60.518 120.565 63.397 124.219C64.2673 124.861 64.2673 124.861 65.4129 124.861C65.4129 125.239 65.4129 125.617 65.4129 126.006C65.7909 126.006 66.1689 126.006 66.5584 126.006C66.7001 126.349 66.8419 126.691 66.9879 127.044C67.8074 128.478 68.6026 129.145 69.9949 130.015C70.3729 130.015 70.7509 130.015 71.1404 130.015C71.3518 123.968 71.3518 123.968 69.9949 121.424C69.6169 121.424 69.2389 121.424 68.8494 121.424C68.7091 121.132 68.5688 120.839 68.4243 120.538C67.4567 118.651 66.3983 116.818 65.3413 114.981C65.1279 114.609 64.9145 114.236 64.6947 113.853C64.171 112.94 63.6465 112.027 63.1218 111.115C62.7438 111.115 62.3658 111.115 61.9763 111.115C61.9763 110.737 61.9763 110.358 61.9763 109.969Z" fill="#CFCFD1"/>
<path d="M124.288 107.49C122.91 111.499 120.618 115.03 117.415 117.8C117.037 117.8 116.659 117.8 116.269 117.8C115.707 115.478 115.65 113.31 115.697 110.927C116.696 110.348 117.699 109.777 118.704 109.208C119.262 108.889 119.82 108.57 120.395 108.242C121.997 107.49 121.997 107.49 124.288 107.49Z" fill="#D0D0D1"/>
<path d="M63.1218 108.251C64.4999 112.26 66.7919 115.79 69.9949 118.56C70.3729 118.56 70.7509 118.56 71.1404 118.56C71.7031 116.239 71.7599 114.071 71.7131 111.687C70.7142 111.109 69.7111 110.537 68.7062 109.969C68.148 109.65 67.5898 109.331 67.0147 109.003C65.4128 108.251 65.4128 108.251 63.1218 108.251Z" fill="#D0D0D1"/>
<path d="M119.133 100.617C119.7 100.617 120.267 100.617 120.851 100.617C120.851 104.885 118.427 107.262 115.697 110.354C115.13 110.165 114.563 109.976 113.978 109.781C113.789 108.08 113.6 106.379 113.406 104.626C113.771 104.385 114.137 104.143 114.513 103.895C114.986 103.581 115.46 103.267 115.947 102.944C116.419 102.631 116.891 102.319 117.377 101.997C118.503 101.282 118.503 101.282 119.133 100.617Z" fill="#CFCFD0"/>
<path d="M68.2766 101.378C67.7096 101.378 67.1426 101.378 66.5583 101.378C66.5583 105.646 68.9825 108.023 71.7131 111.115C72.2802 110.926 72.8472 110.737 73.4314 110.542C73.6204 108.841 73.8094 107.14 74.0042 105.387C73.6387 105.146 73.2732 104.904 72.8967 104.655C72.4234 104.342 71.9502 104.028 71.4626 103.705C70.9908 103.392 70.519 103.08 70.0329 102.758C68.9067 102.043 68.9067 102.043 68.2766 101.378Z" fill="#CFCFD0"/>
<path d="M124.861 99.4714C125.239 99.4714 125.617 99.4714 126.006 99.4714C126.927 101.313 126.612 103.158 126.579 105.199C124.027 106.05 124.027 106.05 121.424 106.917C121.848 104.038 122.781 101.551 124.861 99.4714Z" fill="#CDCDCF"/>
<path d="M62.5491 100.232C62.171 100.232 61.793 100.232 61.4036 100.232C60.483 102.073 60.7979 103.919 60.8308 105.96C63.3824 106.81 63.3824 106.81 65.9856 107.678C65.5622 104.799 64.6288 102.312 62.5491 100.232Z" fill="#CDCDCF"/>
<path d="M126.006 92.0256C126.195 93.7267 126.384 95.4278 126.579 97.1804C123.286 97.252 123.286 97.252 121.997 96.6076C122.315 94.3791 123.52 92.0256 126.006 92.0256Z" fill="#D1D1D3"/>
<path d="M61.4036 92.7864C61.2145 94.4875 61.0255 96.1885 60.8308 97.9412C64.1241 98.0128 64.1241 98.0128 65.4128 97.3684C65.0945 95.1398 63.89 92.7864 61.4036 92.7864Z" fill="#D1D1D3"/>
<path d="M120.279 97.7531C120.279 98.3202 120.279 98.8872 120.279 99.4714C119.47 99.7772 118.658 100.074 117.844 100.366C117.393 100.532 116.941 100.699 116.475 100.87C115.014 101.216 114.234 101.102 112.833 100.617C113.406 98.8987 113.406 98.8987 114.945 97.8963C117.056 97.0995 118.127 97.1895 120.279 97.7531Z" fill="#D3D3D4"/>
<path d="M67.1311 98.5139C67.1311 99.0809 67.1311 99.648 67.1311 100.232C67.9397 100.538 68.7518 100.835 69.5653 101.127C70.0172 101.293 70.469 101.459 70.9346 101.631C72.3953 101.976 73.1755 101.863 74.5769 101.378C74.0042 99.6594 74.0042 99.6594 72.4649 98.6571C70.3532 97.8603 69.2832 97.9503 67.1311 98.5139Z" fill="#D3D3D4"/>
</svg>
